<?xml version="1.0" encoding="iso-8859-1"?>

<!DOCTYPE svg PUBLIC "-//W3C//DTD SVG 1.1//EN" "http://www.w3.org/Graphics/SVG/1.1/DTD/svg11.dtd">
<!-- Uploaded to: SVG Repo, www.svgrepo.com, Generator: SVG Repo Mixer Tools -->
<svg height="800px" width="800px" version="1.1" id="_x34_" xmlns="http://www.w3.org/2000/svg" xmlns:xlink="http://www.w3.org/1999/xlink" 
	 viewBox="0 0 512 512"  xml:space="preserve">
<g>
	<path style="fill:#B24746;" d="M256.003,131.583v276.185c-26.558,32.167-81.391,40.812-133.73,17.836
		c-35.829-15.655-70.487-46.109-94.01-94.009c-8.957-17.992-16.2-38.553-21.34-61.686c-1.869-8.178-3.506-16.745-4.751-25.625
		c-16.123-111.3,60.906-163.016,118.62-170.883c32.479-4.44,57.637-1.09,76.874,5.764c27.027,9.658,42.527,26.17,50.626,38.165
		C253.9,125.586,256.003,131.583,256.003,131.583z"/>
	<path style="fill:#8B433F;" d="M256.003,131.606c0,0,25.59-73.068,135.234-58.179c57.661,7.831,134.685,59.56,118.601,170.868
		C481.399,441.084,310.02,473.251,256.003,407.745V131.606z"/>
	<path style="fill:#59463B;" d="M362.517,11.463c-2.489-6.883-6.633-8.771-12.167-10.35c-4.025-1.149-16.788-4.906-35.869,13.264
		c-7.71,7.341-24.17,25.519-30.26,33.46c-6.389,6.715-12.16,14.111-17.152,22.087c-19.565,31.257-26.083,69.078-18.355,106.496
		c0.622,3.015,3.211,5.122,6.151,5.258c0.54,0.026,1.092-0.016,1.646-0.131c3.57-0.737,5.865-4.229,5.128-7.797
		c-12.17-58.916,14.228-108.437,52.624-134.223c1.312-0.564,2.546-1.025,3.64-1.334c11.681-3.305,21.075-4.795,35.124-5.005
		C364.93,33.011,364.883,18.005,362.517,11.463z"/>
	
		<ellipse transform="matrix(0.751 0.6603 -0.6603 0.751 115.2867 -18.5794)" style="opacity:0.74;fill:#FEFDEE;" cx="82.28" cy="143.585" rx="33.543" ry="57.786"/>
	<g>
		<path style="fill:#FAF5B9;" d="M213.8,177.748c-2.576-2.577-6.756-2.577-9.332,0c-2.577,2.577-2.577,6.754,0,9.332
			c14.454,14.455,33.281,21.743,51.756,21.743c0.039,0,0.079-0.002,0.118-0.002v-13.195
			C241.214,195.657,225.715,189.663,213.8,177.748z"/>
		<path style="fill:#DCD7A7;" d="M303.139,180.379c-2.576-2.577-6.755-2.577-9.331,0c-10.178,10.177-23.668,15.217-37.467,15.246
			v13.195c17.183-0.029,34.051-6.363,46.798-19.109C305.717,187.134,305.717,182.956,303.139,180.379z"/>
	</g>
	<g>
		<path style="fill:#60A567;" d="M251.262,69.318c0.853-0.766-24.498-88.389-106.727-65.01
			C149.176,72.482,251.262,69.318,251.262,69.318z"/>
		<path style="fill:#FCF2C7;" d="M153.551,9.202c0,0,55.464,27.181,90.333,57.196L153.551,9.202z"/>
		<path style="fill:#FCF2C7;" d="M221.214,46.691c-4.82-17.501-9.02-29.849-9.286-30.606l6.464,28.609l0.801,3.596l2.968,1.884
			C221.85,48.994,221.527,47.825,221.214,46.691z"/>
		<path style="fill:#FCF2C7;" d="M203.256,36c-4.819-17.501-9.02-29.849-9.286-30.607l6.464,28.61l0.801,3.596l2.968,1.884
			C203.893,38.303,203.57,37.134,203.256,36z"/>
		<path style="fill:#FCF2C7;" d="M210.436,46.644c-17.901,3.008-30.87,4.404-31.669,4.482l28.668-6.2l3.599-0.789l2.96,1.897
			C212.793,46.25,211.598,46.451,210.436,46.644z"/>
		<path style="fill:#FCF2C7;" d="M193.171,34.867c-17.901,3.008-30.869,4.404-31.669,4.482l28.668-6.2l3.598-0.788l2.96,1.897
			C195.528,34.473,194.332,34.674,193.171,34.867z"/>
	</g>
</g>
</svg>