<svg xmlns="http://www.w3.org/2000/svg" xmlns:xlink="http://www.w3.org/1999/xlink" version="1.1" id="_x34_" xml:space="preserve" viewBox="72.01 0 367.97 512">
<g>
	<rect x="72.013" style="fill:#FFFFFF;" width="367.952" height="511.973"/>
	<polygon style="fill:#E3E1E1;" points="439.987,260.009 439.987,512 179.994,512 127.995,459.995 159.998,348.004 127.995,316.001    239.987,204.003 271.99,236.006 383.988,204.003  "/>
	<rect x="128.024" y="347.983" style="fill:#D55A43;" width="111.998" height="112.005"/>
	<rect x="128.024" y="55.994" style="fill:#EA9A7B;" width="255.998" height="95.997"/>
	<polygon style="fill:#E78D76;" points="141.692,71.318 384.022,71.318 384.022,55.994 128.024,55.994 128.024,151.991    141.692,151.991  "/>
	<rect x="272.025" y="203.988" style="fill:#D55A43;" width="111.997" height="111.998"/>
	<rect x="128.024" y="203.988" style="fill:#D55A43;" width="111.998" height="111.998"/>
	<rect x="272.025" y="347.983" style="fill:#10200E;" width="111.997" height="112.005"/>
	<rect x="296.02" y="251.988" style="fill:#FFFFFF;" width="63.993" height="16.002"/>
	<polygon style="fill:#FFFFFF;" points="216.026,251.988 192.03,251.988 192.03,227.992 176.021,227.992 176.021,251.988    152.025,251.988 152.025,267.989 176.021,267.989 176.021,291.991 192.03,291.991 192.03,267.989 216.026,267.989  "/>
	<polygon style="fill:#FFFFFF;" points="214.974,424.6 194.342,403.982 214.974,383.349 204.661,373.038 184.03,393.663    163.391,373.038 153.086,383.349 173.717,403.982 153.086,424.6 163.391,434.933 184.03,414.294 204.661,434.933  "/>
	<rect x="296.02" y="375.986" style="fill:#D7D7D8;" width="63.993" height="16.002"/>
	<rect x="296.02" y="415.983" style="fill:#D7D7D8;" width="63.993" height="16.001"/>
</g>
</svg>