<?xml version="1.0" encoding="iso-8859-1"?>

<!DOCTYPE svg PUBLIC "-//W3C//DTD SVG 1.1//EN" "http://www.w3.org/Graphics/SVG/1.1/DTD/svg11.dtd">
<!-- Uploaded to: SVG Repo, www.svgrepo.com, Generator: SVG Repo Mixer Tools -->
<svg version="1.1" id="_x34_" xmlns="http://www.w3.org/2000/svg" xmlns:xlink="http://www.w3.org/1999/xlink" 
	 viewBox="0 0 512 512"  xml:space="preserve">
<g>
	<g>
		<path style="fill:#EF877C;" d="M367.337,451.067c0,1.244,0,2.57-0.166,3.814c0,0.249,0,0.414-0.082,0.663
			c0,0.746,0,1.492-0.166,2.238c-0.083,0.746-0.166,1.492-0.331,2.238c0,0.414-0.083,0.829-0.166,1.244c0,0.083,0,0.248-0.083,0.331
			c-0.248,1.409-0.497,2.653-0.829,3.979c-0.083,0.58-0.249,1.078-0.415,1.575c-0.248,1.078-0.58,2.238-0.995,3.233
			c0,0.249-0.082,0.414-0.165,0.663c-0.249,0.663-0.497,1.326-0.746,1.907c0,0.083-0.083,0.166-0.083,0.249
			c-0.414,0.912-0.746,1.907-1.243,2.818c-0.083,0.249-0.166,0.415-0.249,0.663c-0.165,0.331-0.331,0.663-0.497,0.912
			c-0.663,1.327-1.326,2.653-1.99,3.897c-0.083,0.083-0.083,0.165-0.166,0.248c-0.249,0.332-0.414,0.746-0.746,1.078
			c-0.58,1.078-1.327,2.155-2.073,3.233c-0.083,0.083-0.083,0.166-0.166,0.248c-0.331,0.498-0.663,0.912-1.078,1.41
			c-0.083,0.083-0.083,0.083-0.166,0.165c-0.746,1.078-1.658,2.156-2.57,3.15c-0.082,0.249-0.331,0.497-0.58,0.663
			c-0.663,0.829-1.41,1.658-2.155,2.404c-0.332,0.332-0.58,0.58-0.912,0.829l-0.082,0.083c-0.829,0.912-1.824,1.741-2.736,2.404
			c-0.249,0.249-0.497,0.497-0.746,0.663c-1.16,0.995-2.238,1.907-3.482,2.653c-0.829,0.58-1.575,1.16-2.404,1.658
			c-1.327,0.912-2.736,1.741-4.145,2.488c-1.078,0.58-2.155,1.078-3.233,1.492c-1.161,0.663-2.404,1.161-3.648,1.575
			c-0.083,0-0.083,0.083-0.166,0.083c-1.326,0.497-2.735,0.995-4.062,1.409c-1.409,0.414-2.818,0.746-4.228,1.078
			c-0.829,0.248-1.741,0.414-2.653,0.497c-1.16,0.249-2.321,0.414-3.482,0.497c-0.414,0.166-0.829,0.166-1.326,0.166
			c-1.907,0.248-3.814,0.331-5.72,0.331H70.798c-7.958,0-15.585-1.575-22.549-4.394c-15.42-6.135-27.855-18.57-33.989-33.99
			c-2.404-5.886-3.897-12.187-4.228-18.736c-0.166-1.243-0.166-2.57-0.166-3.814c0-26.943,17.824-30.922,42.28-31.503
			c2.902-0.083,5.886-0.083,8.953-0.083h245.306c6.466,0,12.767-0.082,18.653,0.083
			C349.513,420.145,367.337,424.207,367.337,451.067z"/>
		<path style="fill:#EF877C;" d="M367.337,41.948v411.109c0,0.58-0.083,1.243-0.166,1.824c0,0.249,0,0.414-0.082,0.663
			c0,0.166,0,0.331-0.083,0.497c-1.327,6.715-7.295,11.772-14.425,11.772H24.622c-7.544,0-13.762-5.637-14.591-12.933
			c-0.166-0.58-0.166-1.243-0.166-1.824V41.948c0-8.124,6.632-0.166,14.757-0.166h327.958
			C360.705,41.782,367.337,33.824,367.337,41.948z"/>
		<path style="fill:#FFFFFF;" d="M377.202,9.368v99.233h-0.083V85.057H0V9.368C0,4.228,4.228,0,9.451,0h358.3
			C372.974,0,377.202,4.228,377.202,9.368z"/>
		<rect x="188.586" y="85.068" style="opacity:0.1;fill:#040000;" width="0.015" height="23.566"/>
		<rect x="52.107" y="147.514" style="fill:#FFFFFF;" width="272.973" height="292.857"/>
		<rect x="86.474" y="174.026" style="fill:#EF877C;" width="204.239" height="19.884"/>
		<rect x="86.474" y="215.539" style="fill:#EF877C;" width="204.239" height="19.884"/>
		<rect x="125.751" y="260.47" style="fill:#EF877C;" width="125.686" height="19.884"/>
		<rect x="87.947" y="386.017" style="fill:#EF877C;" width="201.293" height="19.884"/>
		<rect x="9.882" y="85.068" style="opacity:0.1;fill:#040000;" width="357.423" height="23.566"/>
		<g>
			<path style="fill:#EF877C;" d="M174.6,304.053c-15.013,0-27.296,12.283-27.296,27.296v0c0,15.013,12.283,27.296,27.296,27.296
				h22.783v-54.592H174.6z"/>
			<path style="fill:#EAEAEA;" d="M220.166,304.053h-22.783v54.592h22.783c15.013,0,27.296-12.283,27.296-27.296v0
				C247.462,316.336,235.179,304.053,220.166,304.053z"/>
		</g>
	</g>
	<path style="opacity:0.04;fill:#040000;" d="M377.202,9.368v16.746l-0.083,58.943h-9.782v368c0,0.58-0.083,1.243-0.166,1.824
		c0,0.249,0,0.414-0.082,0.663c0,0.166,0,0.331-0.083,0.497c0,1.326-0.166,2.653-0.414,3.979c0,0.414-0.083,0.829-0.166,1.244
		c-0.249,1.492-0.58,2.901-0.912,4.31c-0.083,0.58-0.249,1.078-0.415,1.575c-0.331,1.327-0.746,2.653-1.16,3.897
		c-0.249,0.663-0.497,1.326-0.746,1.907c-0.497,1.244-0.995,2.487-1.575,3.731c-0.165,0.331-0.331,0.663-0.497,0.912
		c-0.663,1.41-1.409,2.819-2.155,4.145c-0.249,0.332-0.414,0.746-0.746,1.078c-0.663,1.161-1.41,2.322-2.239,3.482
		c-0.331,0.498-0.663,0.912-1.078,1.41c-0.829,1.161-1.741,2.238-2.736,3.316c-0.082,0.249-0.331,0.497-0.58,0.663
		c-0.995,1.161-2.073,2.238-3.15,3.316c-1.078,1.078-2.238,2.155-3.482,3.067c-1.16,0.995-2.238,1.907-3.482,2.653
		c-2.073,1.575-4.228,2.901-6.549,4.145c-1.078,0.58-2.155,1.078-3.233,1.492c-1.161,0.663-2.404,1.161-3.648,1.575
		c-1.409,0.58-2.819,1.078-4.228,1.492c-5.554,1.658-11.357,2.57-17.409,2.57H188.601V0h179.15
		C372.974,0,377.202,4.228,377.202,9.368z"/>
</g>
</svg>