<?xml version="1.0" encoding="iso-8859-1"?>

<!DOCTYPE svg PUBLIC "-//W3C//DTD SVG 1.1//EN" "http://www.w3.org/Graphics/SVG/1.1/DTD/svg11.dtd">
<!-- Uploaded to: SVG Repo, www.svgrepo.com, Generator: SVG Repo Mixer Tools -->
<svg height="800px" width="800px" version="1.1" id="_x34_" xmlns="http://www.w3.org/2000/svg" xmlns:xlink="http://www.w3.org/1999/xlink" 
	 viewBox="0 0 512 512"  xml:space="preserve">
<g>
	<g>
		<g>
			<g>
				<path style="fill:#B9B9B8;" d="M229.045,216.663l-5.495,16.244l-6.546,19.234l-4.202,12.284l-25.779,75.883
					c0,0-0.242,0-0.647,0.162c-1.293,0.243-4.283,1.212-8.404,3.879c0,0-55.034,130.838-66.267,155.404
					c-0.808,1.698-1.535,3.234-2.182,4.526c-9.051,17.537-8.405,0.647-6.789-6.061c0-0.162,0.081-0.324,0.162-0.566
					c2.424-11.151,24.325-125.746,33.052-164.454c0.566-2.344,1.051-4.364,1.455-6.142c6.627-26.831,15.032-51.075,21.093-62.227
					c0.97-1.858,1.859-3.314,2.667-4.444c2.505-3.233,12.93-17.375,24.244-32.73c9.779-13.415,20.284-27.799,26.588-36.366
					c3.556-4.93,5.737-7.92,5.737-7.92L229.045,216.663z"/>
				<path style="fill:#3E4F42;" d="M363.6,43.803c-6.95-17.94-21.173-32.245-39.195-39.194c-7.516-2.909-15.678-4.526-24.244-4.606
					c-37.902-0.324-68.934,30.143-69.176,68.044c-0.081,13.011,3.394,25.214,9.617,35.638c10.91,18.345,30.143,31.114,52.529,33.215
					c2.02,0.243,3.96,0.324,5.98,0.324c37.902,0.322,68.853-30.224,69.096-68.126C368.287,60.127,366.671,51.642,363.6,43.803z
					 M299.272,116.292c-26.345-0.243-47.518-21.738-47.357-48.084C252.158,41.944,273.654,20.69,300,20.932
					c26.264,0.162,47.518,21.739,47.276,48.004C347.033,95.281,325.537,116.454,299.272,116.292z"/>
				<path style="fill:#3E4F42;" d="M303.555,133.102c-2.343,0.727-6.141,2.02-10.425,3.798c-9.132,3.96-20.526,10.344-25.699,19.234
					c-10.021,17.375-26.83,47.033-41.134,74.913c-0.565,1.132-1.616,1.698-2.747,1.86c-1.536,0.161-3.152-0.646-3.556-2.425
					l-8.97-35.235c-0.162-0.647-0.081-1.292,0.161-1.939c0.243-0.566,0.485-1.293,0.808-2.02c4.768-12.85,18.183-47.841,21.9-59.479
					c2.505-8.081,6.142-18.345,6.708-28.124c0.162-2.262,0.162-4.444-0.081-6.626c-0.323-2.666,3.395-3.96,5.495-2.262
					c19.315,16.163,42.912,27.233,52.287,33.132C300.727,129.465,306.222,132.293,303.555,133.102z"/>
			</g>
			<g>
				<path style="fill:#E3E2E2;" d="M263.229,498.622c-11.718-24.487-68.691-154.355-68.691-154.355
					c-3.879-2.424-6.707-3.394-8.162-3.798c-0.646-0.162-0.97-0.162-0.97-0.162l-14.869-41.699l-12.041-33.781l-11.233-31.356
					l-5.738-16.082l10.829-33.537c0,0,2.262,3.07,5.98,7.919c6.384,8.485,17.052,22.627,27.072,35.881
					c10.91,14.547,21.093,28.042,24.164,31.921c0.161,0.162,0.323,0.323,0.404,0.485c0.889,1.051,1.778,2.506,2.828,4.364
					c6.142,11.07,14.951,35.073,21.982,61.902c8.162,31.114,35.396,163.486,37.336,170.598
					C273.977,504.036,274.866,523.028,263.229,498.622z"/>
				<path style="fill:#3E4F42;" d="M134.897,52.531C126.977,22.711,99.42,1.052,67.095,1.78C29.193,2.668-0.87,34.106,0.019,71.926
					c0.485,19.476,8.971,36.932,22.385,49.135c12.526,11.475,29.416,18.345,47.841,17.94c2.02-0.081,3.96-0.162,5.9-0.404
					c22.385-2.425,41.376-15.597,52.044-34.103c6.061-10.506,9.374-22.709,9.051-35.72
					C137.079,63.198,136.352,57.703,134.897,52.531z M21.031,71.44c-0.647-26.264,20.284-48.084,46.549-48.73
					c14.627-0.324,27.961,6.061,36.932,16.244c7.111,8.081,11.556,18.667,11.799,30.305c0.647,26.264-20.284,48.164-46.549,48.811
					c-12.364,0.243-23.84-4.202-32.487-11.879C27.577,97.705,21.354,85.341,21.031,71.44z"/>
				<path style="fill:#3E4F42;" d="M159.141,195.652l-8.404,35.314c-0.404,1.779-1.939,2.667-3.475,2.506
					c-1.051-0.081-2.182-0.646-2.748-1.778c-14.788-27.638-32.002-57.055-42.346-74.267c-5.333-8.89-16.809-15.032-26.022-18.83
					c-4.283-1.778-8.001-2.99-10.425-3.636c-2.747-0.809,2.748-3.717,5.091-5.253c9.375-6.061,32.81-17.456,51.802-33.942
					c2.101-1.778,5.818-0.484,5.576,2.182c-0.162,2.182-0.162,4.364,0,6.546c0.727,9.778,4.526,20.042,7.192,28.042
					c3.798,11.718,17.941,46.63,22.951,59.237c0.243,0.727,0.485,1.373,0.728,1.939
					C159.303,194.359,159.303,195.005,159.141,195.652z"/>
			</g>
		</g>
		<circle style="fill:#9F9E9F;" cx="185.725" cy="276.774" r="15.558"/>
	</g>
	<path style="fill:none;" d="M267.432,156.134c-0.419,0.727-0.916,1.595-1.358,2.364l15.825-15.825
		C276.049,146.246,270.582,150.719,267.432,156.134z"/>
	<path style="fill:none;" d="M300,20.932c-26.345-0.242-47.842,21.012-48.084,47.277c-0.162,26.345,21.011,47.841,47.357,48.084
		c3.437,0.022,6.786-0.342,10.022-1.016l36.962-36.962c0.632-3.031,0.989-6.165,1.018-9.379
		C347.518,42.671,326.264,21.094,300,20.932z"/>
	<path style="fill:none;" d="M346.257,78.314l-36.962,36.962C327.774,111.433,342.384,96.875,346.257,78.314z"/>
	<path style="fill:none;" d="M67.58,22.711c-26.264,0.646-47.195,22.465-46.549,48.73c0.323,13.901,6.546,26.264,16.244,34.75
		c8.647,7.677,20.123,12.122,32.487,11.879c26.264-0.646,47.195-22.546,46.549-48.811c-0.242-11.638-4.687-22.224-11.799-30.305
		C95.541,28.772,82.207,22.387,67.58,22.711z"/>
	<path style="fill:none;" d="M299.272,116.292c26.264,0.162,47.761-21.011,48.003-47.357c0.242-26.264-21.011-47.842-47.276-48.004
		c-26.345-0.242-47.842,21.012-48.084,47.277C251.754,94.554,272.927,116.05,299.272,116.292z"/>
	<path style="fill:none;" d="M293.13,136.9c-9.132,3.96-20.526,10.344-25.699,19.234c-5.561,9.643-13.232,23.119-21.386,37.925
		l57.001-57.001c-1.31,0.063-2.607,0.178-3.936,0.166C297.09,137.224,295.151,137.143,293.13,136.9z"/>
	<path style="fill:none;" d="M67.58,22.711c-26.264,0.646-47.195,22.465-46.549,48.73c0.323,13.901,6.546,26.264,16.244,34.75
		c8.647,7.677,20.123,12.122,32.487,11.879c26.264-0.646,47.195-22.546,46.549-48.811c-0.242-11.638-4.687-22.224-11.799-30.305
		C95.541,28.772,82.207,22.387,67.58,22.711z"/>
	<g>
		<path style="opacity:0.1;fill:#040000;" d="M368.037,72.068l-64.991,64.99C338.132,135.357,366.3,107.258,368.037,72.068z"/>
		<path style="opacity:0.1;fill:#040000;" d="M223.55,232.907c1.132-0.162,2.182-0.727,2.747-1.86
			c6.366-12.408,13.209-25.116,19.748-36.989l-98.801,98.801c-3.39,10.203-6.802,21.889-9.842,34.195
			c-0.404,1.778-0.889,3.798-1.455,6.142c-8.727,38.709-30.628,153.303-33.052,164.454c-0.081,0.243-0.162,0.404-0.162,0.566
			c-1.616,6.708-2.263,23.598,6.789,6.061c0.646-1.292,1.374-2.828,2.182-4.526c11.233-24.567,66.267-155.404,66.267-155.404
			c4.122-2.667,7.112-3.636,8.404-3.879c1.455,0.404,4.283,1.374,8.162,3.798c0,0,56.974,129.868,68.691,154.355
			c11.637,24.406,10.748,5.414,8.89-1.697c-1.939-7.113-29.174-139.484-37.336-170.598c-7.031-26.83-15.84-50.832-21.982-61.902
			l4.202-12.284L223.55,232.907z"/>
	</g>
</g>
</svg>