<?xml version="1.0" encoding="iso-8859-1"?>

<!DOCTYPE svg PUBLIC "-//W3C//DTD SVG 1.1//EN" "http://www.w3.org/Graphics/SVG/1.1/DTD/svg11.dtd">
<!-- Uploaded to: SVG Repo, www.svgrepo.com, Generator: SVG Repo Mixer Tools -->
<svg version="1.1" id="_x34_" xmlns="http://www.w3.org/2000/svg" xmlns:xlink="http://www.w3.org/1999/xlink" 
	 viewBox="0 0 512 512"  xml:space="preserve">
<g>
	<polygon style="fill:#E4D491;" points="130.558,205.572 56.726,361.639 95.933,398.754 	"/>
	<g>
		<rect x="46.481" y="0.047" style="fill:#BCBCBC;" width="226.467" height="70.601"/>
		<polygon style="fill:#336A81;" points="231.306,435.68 164.517,506.795 163.637,507.674 159.678,512 88.05,435.68 88.563,432.6 
			88.783,431.061 130.352,204.52 132.185,192.13 187.171,192.13 189.003,204.52 		"/>
		<path style="fill:#488699;" d="M217.083,152.247l-2.053,4.106l-18.549,38.123c-1.98,3.959-4.472,7.405-7.478,10.044
			c-5.059,4.692-11.29,7.331-17.962,7.331h-22.728c-6.598,0-12.903-2.639-17.962-7.331c-2.932-2.639-5.498-6.085-7.478-10.044
			l-18.549-38.123l-2.053-4.106c-8.138-16.789,2.053-37.756,18.401-37.756h78.006C215.03,114.491,225.22,135.458,217.083,152.247z"
			/>
		<g>
			<polygon style="fill:#FFFFFF;" points="120.821,114.491 104.326,156.354 88.197,197.116 0,59.945 46.481,0.341 46.701,0.047 
				92.376,70.649 			"/>
			<polygon style="fill:#FFFFFF;" points="198.514,114.564 231.12,197.157 319.344,59.947 272.719,0 			"/>
		</g>
	</g>
	<path style="opacity:0.06;fill:#040000;" d="M196.524,194.476l18.538-38.102l16.1,40.783l88.224-137.211L272.991,0.294V0.047
		h-0.192L272.762,0l-0.031,0.047H159.714v70.601h67.287l-28.398,43.842h-38.889v397.502L159.72,512l3.959-4.326l0.88-0.879
		l66.789-71.115L189.046,204.52C192.052,201.881,194.544,198.436,196.524,194.476z"/>
</g>
</svg>