<?xml version="1.0" encoding="iso-8859-1"?>

<!DOCTYPE svg PUBLIC "-//W3C//DTD SVG 1.1//EN" "http://www.w3.org/Graphics/SVG/1.1/DTD/svg11.dtd">
<!-- Uploaded to: SVG Repo, www.svgrepo.com, Generator: SVG Repo Mixer Tools -->
<svg version="1.1" id="_x34_" xmlns="http://www.w3.org/2000/svg" xmlns:xlink="http://www.w3.org/1999/xlink" 
	 viewBox="0 0 512 512"  xml:space="preserve">
<g>
	<g>
		<g>
			<path style="fill:#94796E;" d="M450.321,512H0c0,0,0.262-2.822,0.591-7.546c1.444-16.47,4.724-55.839,6.562-75.13
				c2.362-24.803,18.963-43.438,42.65-51.705c11.745-4.134,42.453-15.42,70.209-25.721l0.262-0.066
				c9.974-3.674,19.553-7.218,27.69-10.302c1.509-0.525,2.887-1.05,4.265-1.575c1.706-0.591,3.346-1.247,4.856-1.772
				c4.003-1.509,7.415-2.756,10.039-3.74c1.378-0.525,2.493-0.984,3.412-1.312h0.066c1.575-0.591,2.428-0.919,2.428-0.919
				l45.406,1.312l6.758,0.197l52.164-1.509c0,0,0.853,0.328,2.428,0.919h0.066c0.919,0.328,2.034,0.787,3.412,1.312
				c2.034,0.722,4.527,1.64,7.349,2.69c2.625,1.05,5.643,2.1,8.858,3.346c0.984,0.328,1.903,0.722,2.953,1.05
				c11.089,4.134,24.737,9.186,38.451,14.239v0.066c3.412,1.247,6.89,2.559,10.302,3.806c2.69,0.984,5.38,1.969,8.005,2.953
				c17.782,6.562,33.661,12.336,41.404,15.026c23.687,8.268,40.288,26.902,42.65,51.705C445.597,454.127,450.321,512,450.321,512z"
				/>
			<polygon style="fill:#9D8477;" points="223.619,365.086 223.619,511.081 152.163,511.081 152.163,450.452 90.615,462.329 
				112.465,355.113 120.011,351.897 120.274,351.832 147.767,340.218 150.129,339.234 152.229,339.955 167.123,345.205 
				218.435,363.249 220.338,363.905 222.109,364.561 			"/>
			<polygon style="fill:#9D8477;" points="303.024,339.247 340.747,355.126 362.585,462.341 301.038,450.423 301.038,511.098 
				229.565,511.098 229.565,365.058 			"/>
			<rect x="197.802" y="406.747" style="fill:#D2171A;" width="52.941" height="104.351"/>
		</g>
		<path style="fill:#BF9862;" d="M323.617,319.418c-4.462,2.625-8.858,5.118-13.254,7.48c-2.165,1.181-4.331,2.362-6.496,3.478
			c-2.1,1.181-4.265,2.231-6.365,3.346c-2.362,1.181-4.659,2.362-6.89,3.412c-2.493,1.247-4.921,2.428-7.349,3.543
			c-22.375,10.499-41.404,17.388-52.427,21.128c-2.231,0.722-4.068,1.312-5.643,1.772v1.509l-0.131-0.066
			c-0.328-0.066-1.115-0.328-2.297-0.656c-0.262,0.066-0.459,0.131-0.656,0.197c-1.181,0.328-1.772,0.525-1.772,0.525v-1.509
			c-0.59-0.197-1.247-0.394-1.903-0.591c-9.514-3.084-28.346-9.58-51.312-20.078c-3.281-1.444-6.627-3.018-10.039-4.724
			c-2.165-1.05-4.396-2.1-6.627-3.215c-9.186-4.593-18.766-9.777-28.477-15.551c-53.608-31.824-75.458-73.49-43.7-186.611
			C108.528,25.065,172.963,2.1,218.435,0.131c0.656,0,1.312-0.066,1.903-0.066V0h4.856c23.622,0,44.356,5.905,61.744,15.42
			c18.438,9.974,33.07,24.015,43.503,39.173c3.281,4.265,6.43,8.858,9.514,13.845c10.63,17.06,20.013,38.254,27.362,64.369
			C399.075,245.928,377.225,287.594,323.617,319.418z"/>
		<rect x="167.129" y="213.18" style="fill:#F0DEB4;" width="116.127" height="160.804"/>
		<path style="fill:#F8E8BC;" d="M264.821,126.137c-2.473,22.158,27.265,53.14,53.294,53.345c0,0,0,15.744,0,48.443
			c0,32.692-34.423,80.866-92.926,80.866s-92.919-48.174-92.919-80.866c0-32.699,0-39.965,0-39.965
			C207.811,187.96,205.331,126.137,264.821,126.137z"/>
		<rect x="198.718" y="367.038" style="fill:#D2171A;" width="52.941" height="37.062"/>
		<rect x="198.718" y="400.128" style="fill:#B31E24;" width="52.941" height="11.913"/>
		<g>
			<polygon style="fill:#F1F2F1;" points="225.193,365.086 223.619,366.595 223.159,367.055 218.435,371.648 215.942,374.01 
				198.75,390.676 162.99,425.256 147.964,341.53 147.767,340.218 147.111,336.609 150.457,334.969 162.99,328.669 167.123,331.097 
				170.535,333.131 170.601,333.131 218.435,361.149 225.062,365.021 			"/>
			<polygon style="fill:#F1F2F1;" points="225.189,365.058 287.402,328.662 303.281,336.595 287.402,425.272 			"/>
		</g>
	</g>
	<path style="opacity:0.1;fill:#3E3A39;" d="M450.321,512H218.435V0.131c0.656,0,1.312-0.066,1.903-0.066V0h4.856
		c23.622,0,44.356,5.905,61.744,15.42c18.438,9.974,33.07,24.015,43.503,39.173c3.281,4.265,6.43,8.858,9.514,13.845
		c10.63,17.06,20.013,38.254,27.362,64.369c31.758,113.122,9.908,154.788-43.7,186.611c-4.462,2.625-8.858,5.118-13.254,7.48
		c-2.165,1.181-4.331,2.362-6.496,3.478c-2.1,1.181-4.265,2.231-6.365,3.346l5.774,2.887l-0.459,2.69l0.197-0.066l37.729,15.879
		l0.131,0.656v0.066c3.412,1.247,6.89,2.559,10.302,3.806c2.69,0.984,5.38,1.969,8.005,2.953
		c17.782,6.562,33.661,12.336,41.404,15.026c23.687,8.268,40.288,26.902,42.65,51.705C445.597,454.127,450.321,512,450.321,512z"/>
</g>
</svg>